Coordinates
version=1
nRows=12
nColumns=24
inDegrees=yes

Units are S.I. units (second, meters, Newtons, ...)
Angles are in degrees.

endheader
time	pelvis_tilt	pelvis_list	pelvis_rotation	pelvis_tx	pelvis_ty	pelvis_tz	hip_flexion_r	hip_adduction_r	hip_rotation_r	knee_angle_r	ankle_angle_r	subtalar_angle_r	mtp_angle_r	hip_flexion_l	hip_adduction_l	hip_rotation_l	knee_angle_l	ankle_angle_l	subtalar_angle_l	mtp_angle_l	lumbar_extension	lumbar_bending	lumbar_rotation
      0.55000000	      3.26803041	      4.02604015	      6.09200782	     -0.92748565	      1.01784232	      0.30253401	     21.05782990	     -3.68407653	     -9.34440253	      0.20046049	      5.39099172	      1.24271937	      4.83434207	    -15.47105919	      8.16379466	      9.95404474	    -10.52090909	     14.25237625	     -7.17459978	     -3.54870023	     -7.75664187	     -6.81600909	     -3.42230626
      0.55416667	      3.32443654	      3.87458294	      6.19268392	     -0.92176024	      1.01753482	      0.30246132	     21.03169372	     -3.48413170	     -9.25867297	     -0.46094398	      5.50399102	      1.15567009	      4.84479140	    -15.66999286	      7.96454287	      9.95350242	    -10.92000930	     14.32988054	     -7.13314124	     -3.55498628	     -7.75327771	     -6.59694204	     -3.42154797
      0.55833333	      3.36476974	      3.72881355	      6.29584163	     -0.91599633	      1.01722757	      0.30240593	     21.01355264	     -3.28864903	     -9.13612855	     -1.12960816	      5.54885698	      0.98271446	      4.85763265	    -15.84337404	      7.77172055	      9.96088793	    -11.33281175	     14.37277504	     -7.09005255	     -3.55928814	     -7.73752040	     -6.39659126	     -3.47828973
      0.56250000	      3.39567591	      3.57057821	      6.38533564	     -0.91015533	      1.01690939	      0.30240625	     20.98667456	     -3.06590330	     -8.91311659	     -1.77494467	      5.49247381	      0.62913460	      4.89217310	    -15.98994222	      7.56357126	      9.90337774	    -11.78505789	     14.46043110	     -6.91716343	     -3.56259676	     -7.72518018	     -6.19473741	     -3.61897919
      0.56666667	      3.43369489	      3.41224521	      6.47781503	     -0.90424517	      1.01664218	      0.30240200	     20.93162208	     -2.83926658	     -8.67093674	     -2.39398589	      5.37508276	      0.20698698	      4.93997453	    -16.14368065	      7.35239044	      9.84805361	    -12.23618821	     14.48624551	     -6.81267672	     -3.55957923	     -7.67987802	     -5.98300448	     -3.69201421
      0.57083333	      3.48219418	      3.25809792	      6.56973347	     -0.89830909	      1.01640828	      0.30241626	     20.85807375	     -2.61148940	     -8.41438391	     -3.00730478	      5.23845013	     -0.24219069	      4.99073698	    -16.30228540	      7.14694784	      9.83647504	    -12.70566705	     14.47552588	     -6.75220661	     -3.54598412	     -7.65074482	     -5.77589608	     -3.75879508
      0.57500000	      2.84425334	      2.90781640	      6.18786671	     -0.89054964	      1.01519016	      0.30273429	     21.49580924	     -2.08491030	     -7.69102834	     -3.58376707	      4.94881137	     -0.79362380	      5.10223445	    -15.91945456	      6.94906411	      9.28335872	    -12.89686840	     14.33185628	     -6.72958473	     -3.50148084	     -6.48451430	     -5.44040009	     -3.31580321
      0.57916667	      2.86781880	      2.78163091	      6.32901397	     -0.88471910	      1.01500986	      0.30274647	     21.43000559	     -1.89664885	     -7.41213933	     -4.15356462	      4.65829613	     -1.38215898	      5.16748392	    -15.99946611	      6.76217713	      9.31115761	    -13.45817246	     14.27298163	     -6.65506543	     -3.45623899	     -6.45428505	     -5.27232129	     -3.48518848
      0.58333333	      2.88337157	      2.64671300	      6.43818851	     -0.87875397	      1.01483551	      0.30283784	     21.35384793	     -1.67978148	     -7.08376297	     -4.67441333	      4.27549480	     -2.05183537	      5.24807375	    -16.07548367	      6.56743433	      9.27916690	    -14.01112313	     14.17136294	     -6.56472777	     -3.39291134	     -6.37830945	     -5.10412201	     -3.59211519
      0.58750000	      2.89407024	      2.52107798	      6.52096590	     -0.87274626	      1.01466940	      0.30301233	     21.27510991	     -1.45645736	     -6.69454411	     -5.16677705	      3.83395909	     -2.78409863	      5.37232863	    -16.13356188	      6.38256965	      9.18786476	    -14.58730133	     14.06974253	     -6.43954530	     -3.28130745	     -6.29472741	     -4.97576351	     -3.66901035
      0.59166667	      2.92701593	      2.36639447	      6.62349833	     -0.86665242	      1.01458074	      0.30315343	     21.15148717	     -1.20732219	     -6.37480811	     -5.61186498	      3.31336828	     -3.48688384	      5.47387770	    -16.21868219	      6.15769664	      9.14163553	    -15.15381228	     13.89773783	     -6.30994128	     -3.17598684	     -6.21884792	     -4.77154202	     -3.74999088
      0.59583333	      2.90485039	      2.23674010	      6.69336121	     -0.86052073	      1.01441386	      0.30340204	     21.08794098	     -0.97009048	     -5.96612219	     -6.04650468	      2.75238905	     -4.28941787	      5.59717993	    -16.22481467	      5.96651523	      9.02236873	    -15.76063749	     13.70789494	     -6.16175107	     -3.03660694	     -6.07351101	     -4.64455887	     -3.82390856
